<svg version="1.1" id="Layer_1" xmlns="http://www.w3.org/2000/svg" xmlns:xlink="http://www.w3.org/1999/xlink" x="0px" y="0px"
	 width="100%" viewBox="0 0 496 496" enable-background="new 0 0 496 496" xml:space="preserve">
<path fill="#069494" opacity="1.000000" stroke="none" 
	d="
M287.861267,167.703705 
	C310.600311,172.692596 323.341614,188.438354 323.345184,211.050018 
	C323.348236,230.547745 323.390594,250.045578 323.333893,269.543152 
	C323.285583,286.143555 315.915955,298.629395 301.568512,306.816223 
	C298.399872,308.624298 296.880890,310.546509 297.137634,314.221008 
	C297.404083,318.034485 297.388519,321.896362 297.128571,325.712067 
	C296.567291,333.951569 289.672791,337.265564 283.023438,332.447479 
	C275.198944,326.777893 267.490601,320.943970 259.836334,315.045807 
	C257.334229,313.117767 254.779648,312.209106 251.585464,312.257019 
	C241.588928,312.406891 231.587677,312.395874 221.590057,312.284454 
	C200.347473,312.047668 184.012390,298.823456 179.352142,278.105988 
	C178.846664,275.858978 178.698166,273.490967 178.692978,271.178406 
	C178.645889,250.180969 178.624237,229.183258 178.681213,208.185867 
	C178.737717,187.365295 195.331985,169.035812 216.055008,167.702087 
	C239.823715,166.172302 263.635590,166.303101 287.861267,167.703705 
M307.053986,231.500031 
	C307.073425,224.502914 306.937897,217.501251 307.144012,210.509628 
	C307.596924,195.146988 296.342224,183.342575 280.940338,183.310806 
	C261.281128,183.270264 241.621735,183.276276 221.962448,183.289673 
	C206.138641,183.300461 194.834259,193.639862 194.479645,209.485794 
	C194.036209,229.301636 194.126434,249.139297 194.456665,268.959717 
	C194.765976,287.523285 209.394104,296.818542 222.743652,295.924316 
	C233.523972,295.202148 244.392914,295.869659 255.220825,295.755768 
	C259.072876,295.715302 262.321747,296.731720 265.372314,299.130341 
	C270.132416,302.873138 275.112213,306.336487 281.322266,310.888214 
	C278.697205,299.865601 284.045258,296.305206 292.142212,293.242554 
	C301.993439,289.516296 306.999573,281.081055 307.188904,270.479462 
	C307.414917,257.824463 307.123688,245.160233 307.053986,231.500031 
z"/>
<path fill="#069494" opacity="1.000000" stroke="none" 
	d="
M288.341125,218.260666 
	C285.889374,221.164505 282.771393,222.449875 279.739838,224.118683 
	C280.090149,225.515686 281.441650,225.512527 282.340668,225.989365 
	C289.116974,229.583359 292.869324,235.344269 293.139313,242.830322 
	C293.517212,253.307983 293.547974,263.821808 293.140625,274.297363 
	C292.743408,284.512878 285.881226,291.442291 275.615356,293.003937 
	C267.409607,294.252197 258.903656,288.905914 255.609238,280.429474 
	C255.548904,280.274231 255.445831,280.122925 255.432434,279.963928 
	C254.204025,265.391388 253.374969,250.763397 255.962708,236.309174 
	C257.016479,230.423141 262.234253,227.153198 267.462830,224.742615 
	C267.149384,223.263412 265.943817,223.295303 265.131226,222.856125 
	C255.010681,217.386246 251.466034,205.801590 256.929047,195.949310 
	C262.147430,186.538208 274.320312,183.355042 283.724274,188.942459 
	C293.042877,194.479156 295.793549,206.271072 290.007782,215.932602 
	C289.581360,216.644684 289.057983,217.298691 288.341125,218.260666 
M270.341003,266.385132 
	C270.341522,267.884644 270.331543,269.384277 270.344849,270.883667 
	C270.367340,273.422607 270.213226,276.463135 273.728271,276.407227 
	C276.926239,276.356323 276.780396,273.424622 276.789062,271.089844 
	C276.820587,262.592712 276.806366,254.095322 276.788788,245.598068 
	C276.783875,243.211136 276.811951,240.385361 273.501465,240.587418 
	C270.466766,240.772659 270.341034,243.490280 270.343292,245.921005 
	C270.349274,252.418930 270.343567,258.916870 270.341003,266.385132 
M276.619659,205.418396 
	C276.427521,203.139511 275.077942,202.153595 272.953094,202.584229 
	C271.607788,202.856873 270.701721,203.990524 270.558716,205.411865 
	C270.429138,206.699844 271.267975,207.629868 272.332397,208.131958 
	C274.476288,209.143234 275.726074,208.009537 276.619659,205.418396 
z"/>
<path fill="#069494" opacity="1.000000" stroke="none" 
	d="
M247.167358,209.440033 
	C245.224213,217.005219 240.688812,221.713394 232.973953,224.325806 
	C244.955475,228.831406 248.185760,237.525085 247.548019,248.755844 
	C247.077087,257.049133 247.518555,265.390411 247.382584,273.707489 
	C247.206253,284.491913 239.235443,292.694824 228.688751,293.151489 
	C218.629639,293.587006 209.254333,285.210236 208.857864,274.671570 
	C208.451569,263.872406 208.381439,253.025986 208.913528,242.237198 
	C209.336075,233.669418 214.461899,227.881699 222.415710,224.682037 
	C221.807449,222.983368 220.216019,223.138489 219.148315,222.553986 
	C210.741028,217.951523 206.841141,208.499969 209.799942,199.628555 
	C212.858841,190.457031 221.729263,184.804459 230.652771,186.340332 
	C240.985840,188.118835 247.308090,195.383118 247.334549,205.524475 
	C247.337585,206.688156 247.272552,207.851990 247.167358,209.440033 
M231.658554,262.464294 
	C231.647369,256.488739 231.681442,250.512589 231.601410,244.537979 
	C231.571899,242.333755 230.611954,240.537766 228.143600,240.482880 
	C225.680679,240.428131 225.242432,242.360031 225.235123,244.290176 
	C225.199341,253.751160 225.208267,263.212372 225.235413,272.673431 
	C225.241028,274.626495 225.687653,276.492157 228.120010,276.524994 
	C230.400620,276.555786 231.336700,274.785980 231.484360,272.899384 
	C231.729797,269.763214 231.619522,266.599182 231.658554,262.464294 
M227.639053,208.406723 
	C230.207245,208.272751 231.845856,207.026474 231.006668,204.397079 
	C230.390228,202.465530 228.382065,201.602966 226.635681,202.914169 
	C224.426392,204.572891 224.954651,206.541656 227.639053,208.406723 
z"/>
</svg>