<svg version="1.1" id="Layer_1" xmlns="http://www.w3.org/2000/svg" xmlns:xlink="http://www.w3.org/1999/xlink" x="0px" y="0px"
	 width="100%" viewBox="0 0 500 500" enable-background="new 0 0 500 500" xml:space="preserve">
<path fill="#000000" opacity="1.000000" stroke="none" 
	d="
M234.000000,501.000000 
	C156.000015,501.000000 78.500038,501.000000 1.000041,501.000000 
	C1.000028,334.333405 1.000028,167.666779 1.000014,1.000131 
	C167.666565,1.000087 334.333130,1.000087 500.999756,1.000044 
	C500.999847,167.666519 500.999847,334.333038 500.999939,500.999786 
	C412.166656,501.000000 323.333344,501.000000 234.000000,501.000000 
M256.412567,312.740936 
	C265.259186,319.289062 274.098785,325.846649 282.956573,332.379639 
	C285.702026,334.404572 288.468079,335.733398 292.044098,333.966187 
	C295.654144,332.182068 296.896454,329.282623 296.951050,325.600281 
	C297.010284,321.601685 297.163818,317.588226 296.901184,313.605957 
	C296.673309,310.150360 298.011749,308.517426 301.092072,306.784088 
	C314.859619,299.036804 322.986816,287.545013 322.988861,271.193665 
	C322.991516,249.696259 323.008881,228.198822 322.984772,206.701447 
	C322.982361,204.547928 323.046570,202.321381 322.556641,200.252655 
	C317.892365,180.556976 300.839630,167.082077 280.630890,167.033493 
	C267.465851,167.001846 254.299194,166.898132 241.136093,167.058777 
	C231.690521,167.174026 222.143448,166.894806 212.829132,168.165604 
	C194.344086,170.687637 178.539444,188.565399 178.918045,207.420761 
	C179.349533,228.909500 178.972595,250.413803 179.060867,271.910889 
	C179.073624,275.016632 179.410858,278.193756 180.128738,281.211609 
	C183.792587,296.613434 199.604340,310.388062 214.416840,311.677155 
	C216.224319,311.783417 218.031189,311.968842 219.839401,311.983093 
	C231.899460,312.078125 243.959793,312.136597 256.412567,312.740936 
z"/>
<path fill="#0B9393" opacity="1.000000" stroke="none" 
	d="
M213.863983,310.993988 
	C199.604340,310.388062 183.792587,296.613434 180.128738,281.211609 
	C179.410858,278.193756 179.073624,275.016632 179.060867,271.910889 
	C178.972595,250.413803 179.349533,228.909500 178.918045,207.420761 
	C178.539444,188.565399 194.344086,170.687637 212.829132,168.165604 
	C222.143448,166.894806 231.690521,167.174026 241.136093,167.058777 
	C254.299194,166.898132 267.465851,167.001846 280.630890,167.033493 
	C300.839630,167.082077 317.892365,180.556976 322.556641,200.252655 
	C323.046570,202.321381 322.982361,204.547928 322.984772,206.701447 
	C323.008881,228.198822 322.991516,249.696259 322.988861,271.193665 
	C322.986816,287.545013 314.859619,299.036804 301.092072,306.784088 
	C298.011749,308.517426 296.673309,310.150360 296.901184,313.605957 
	C297.163818,317.588226 297.010284,321.601685 296.951050,325.600281 
	C296.896454,329.282623 295.654144,332.182068 292.044098,333.966187 
	C288.468079,335.733398 285.702026,334.404572 282.956573,332.379639 
	C274.098785,325.846649 265.259186,319.289062 255.856491,312.261810 
	C253.523590,311.510986 251.747910,311.013123 249.969757,311.004089 
	C237.934784,310.942993 225.899307,310.985199 213.863983,310.993988 
M249.500000,182.993851 
	C240.008255,182.985352 230.516464,182.956345 221.024841,182.987885 
	C219.379929,182.993362 217.688782,183.055267 216.098831,183.429916 
	C202.879028,186.545029 194.171753,196.279556 194.102280,212.225540 
	C194.014023,232.487915 194.399521,252.760330 195.023285,273.014801 
	C195.390015,284.922974 207.233368,295.878784 219.179901,295.999817 
	C231.334702,296.122955 243.501175,295.771881 255.641602,296.209351 
	C259.153137,296.335907 262.916473,297.930206 265.991272,299.796021 
	C270.946503,302.802979 275.425995,306.593933 280.618256,310.432007 
	C280.808258,309.091339 281.034760,308.472504 280.956818,307.894714 
	C279.967804,300.563385 282.758636,296.731750 290.150024,294.089264 
	C300.604919,290.351562 307.061462,282.441833 307.025116,270.454865 
	C306.961945,249.639664 307.038300,228.824081 307.000641,208.008743 
	C306.997406,206.224838 306.727173,204.407959 306.329742,202.663620 
	C303.617432,190.758820 292.347107,182.949127 279.974609,182.975784 
	C270.149780,182.996948 260.324860,182.989166 249.500000,182.993851 
z"/>
<path fill="#358C89" opacity="1.000000" stroke="none" 
	d="
M214.140411,311.335571 
	C225.899307,310.985199 237.934784,310.942993 249.969757,311.004089 
	C251.747910,311.013123 253.523590,311.510986 255.660233,311.994812 
	C243.959793,312.136597 231.899460,312.078125 219.839401,311.983093 
	C218.031189,311.968842 216.224319,311.783417 214.140411,311.335571 
z"/>
<path fill="#000000" opacity="1.000000" stroke="none" 
	d="
M250.000000,182.994049 
	C260.324860,182.989166 270.149780,182.996948 279.974609,182.975784 
	C292.347107,182.949127 303.617432,190.758820 306.329742,202.663620 
	C306.727173,204.407959 306.997406,206.224838 307.000641,208.008743 
	C307.038300,228.824081 306.961945,249.639664 307.025116,270.454865 
	C307.061462,282.441833 300.604919,290.351562 290.150024,294.089264 
	C282.758636,296.731750 279.967804,300.563385 280.956818,307.894714 
	C281.034760,308.472504 280.808258,309.091339 280.618256,310.432007 
	C275.425995,306.593933 270.946503,302.802979 265.991272,299.796021 
	C262.916473,297.930206 259.153137,296.335907 255.641602,296.209351 
	C243.501175,295.771881 231.334702,296.122955 219.179901,295.999817 
	C207.233368,295.878784 195.390015,284.922974 195.023285,273.014801 
	C194.399521,252.760330 194.014023,232.487915 194.102280,212.225540 
	C194.171753,196.279556 202.879028,186.545029 216.098831,183.429916 
	C217.688782,183.055267 219.379929,182.993362 221.024841,182.987885 
	C230.516464,182.956345 240.008255,182.985352 250.000000,182.994049 
M247.711914,273.541504 
	C247.807236,265.175903 247.964630,256.810150 247.949738,248.444763 
	C247.946442,246.594254 247.333923,244.744827 246.987137,242.072556 
	C246.942307,232.902313 241.510925,227.793365 233.644669,224.512512 
	C246.103958,216.506180 249.829391,209.327118 246.681366,199.479263 
	C244.014038,191.135178 235.856262,185.600861 226.901001,186.059998 
	C219.161438,186.456818 210.386703,193.556976 209.224197,201.102127 
	C208.032120,208.839371 209.519943,218.813263 223.219467,224.523590 
	C213.203857,228.609467 208.222519,235.645111 208.902161,246.813629 
	C209.437256,255.606964 209.490692,264.491028 208.892563,273.275879 
	C208.191925,283.566528 217.933853,292.864380 227.966278,293.026917 
	C237.448685,293.180542 247.563309,285.763580 247.711914,273.541504 
M292.971802,265.480286 
	C292.971100,259.153564 292.751526,252.817596 293.018555,246.502197 
	C293.473206,235.748520 288.840973,228.471970 278.789612,224.577713 
	C289.475677,219.268997 294.571838,211.149841 292.878021,202.213409 
	C291.257050,193.661316 283.393341,186.527802 275.110626,186.095764 
	C265.879456,185.614258 258.052826,190.721893 255.406952,199.442963 
	C253.857620,204.549683 253.639923,209.998337 257.020569,214.457901 
	C260.031372,218.429550 263.876129,221.768967 267.026398,225.047684 
	C260.762146,227.447784 255.296707,232.258926 255.054489,240.705811 
	C254.709625,252.732483 254.612930,264.791595 255.107956,276.808044 
	C255.432251,284.679962 260.390900,289.636688 267.847198,291.994141 
	C275.094208,294.285461 281.318787,292.576965 286.977661,287.524231 
	C293.516663,281.685730 293.108124,274.090576 292.971802,265.480286 
z"/>
<path fill="#0B9293" opacity="1.000000" stroke="none" 
	d="
M292.972412,265.975403 
	C293.108124,274.090576 293.516663,281.685730 286.977661,287.524231 
	C281.318787,292.576965 275.094208,294.285461 267.847198,291.994141 
	C260.390900,289.636688 255.432251,284.679962 255.107956,276.808044 
	C254.612930,264.791595 254.709625,252.732483 255.054489,240.705811 
	C255.296707,232.258926 260.762146,227.447784 267.026398,225.047684 
	C263.876129,221.768967 260.031372,218.429550 257.020569,214.457901 
	C253.639923,209.998337 253.857620,204.549683 255.406952,199.442963 
	C258.052826,190.721893 265.879456,185.614258 275.110626,186.095764 
	C283.393341,186.527802 291.257050,193.661316 292.878021,202.213409 
	C294.571838,211.149841 289.475677,219.268997 278.789612,224.577713 
	C288.840973,228.471970 293.473206,235.748520 293.018555,246.502197 
	C292.751526,252.817596 292.971100,259.153564 292.972412,265.975403 
M270.000793,257.505890 
	C270.002930,262.170868 269.637390,266.879364 270.182098,271.480133 
	C270.410645,273.410553 272.566498,275.112793 273.846161,276.918762 
	C274.899750,275.109100 276.793762,273.331146 276.863495,271.484314 
	C277.190216,262.833008 277.196899,254.155884 276.873077,245.504623 
	C276.803955,243.657364 274.883026,241.879410 273.815216,240.069534 
	C272.546692,241.885101 270.508118,243.571716 270.177826,245.544388 
	C269.580719,249.110229 270.003754,252.846893 270.000793,257.505890 
M276.931274,204.735519 
	C275.533661,202.861725 274.119995,200.585617 271.569733,203.078903 
	C270.857147,203.775543 270.543213,205.487335 270.864288,206.464813 
	C271.192535,207.464157 273.025330,208.982529 273.332275,208.801697 
	C274.720795,207.983643 275.802307,206.644501 276.931274,204.735519 
z"/>
<path fill="#0B9293" opacity="1.000000" stroke="none" 
	d="
M247.046448,274.097351 
	C247.563309,285.763580 237.448685,293.180542 227.966278,293.026917 
	C217.933853,292.864380 208.191925,283.566528 208.892563,273.275879 
	C209.490692,264.491028 209.437256,255.606964 208.902161,246.813629 
	C208.222519,235.645111 213.203857,228.609467 223.219467,224.523590 
	C209.519943,218.813263 208.032120,208.839371 209.224197,201.102127 
	C210.386703,193.556976 219.161438,186.456818 226.901001,186.059998 
	C235.856262,185.600861 244.014038,191.135178 246.681366,199.479263 
	C249.829391,209.327118 246.103958,216.506180 233.644669,224.512512 
	C241.510925,227.793365 246.942307,232.902313 246.977753,242.960312 
	C246.994400,253.931168 247.020432,264.014252 247.046448,274.097351 
M232.044601,250.624451 
	C232.036560,248.801987 232.493851,246.807205 231.899414,245.201874 
	C231.200256,243.313797 229.588760,241.763565 228.372925,240.066849 
	C227.240906,241.800217 225.201050,243.497726 225.130890,245.273041 
	C224.790909,253.875153 224.782059,262.506134 225.129745,271.107727 
	C225.209656,273.084595 227.157745,274.985931 228.246063,276.922028 
	C229.503250,274.940979 231.690552,273.029480 231.844818,270.965973 
	C232.325272,264.539551 232.035629,258.055511 232.044601,250.624451 
M227.040375,202.442261 
	C226.549576,203.975418 225.746262,205.507309 225.740005,207.042419 
	C225.737869,207.569061 227.973679,208.767044 228.753693,208.480133 
	C229.937637,208.044647 230.743240,206.580536 231.709579,205.553391 
	C230.376984,204.404053 229.044403,203.254730 227.040375,202.442261 
z"/>
<path fill="#348488" opacity="1.000000" stroke="none" 
	d="
M247.379181,273.819427 
	C247.020432,264.014252 246.994400,253.931168 246.985153,243.371490 
	C247.333923,244.744827 247.946442,246.594254 247.949738,248.444763 
	C247.964630,256.810150 247.807236,265.175903 247.379181,273.819427 
z"/>
<path fill="#000000" opacity="1.000000" stroke="none" 
	d="
M270.000793,257.009064 
	C270.003754,252.846893 269.580719,249.110229 270.177826,245.544388 
	C270.508118,243.571716 272.546692,241.885101 273.815216,240.069534 
	C274.883026,241.879410 276.803955,243.657364 276.873077,245.504623 
	C277.196899,254.155884 277.190216,262.833008 276.863495,271.484314 
	C276.793762,273.331146 274.899750,275.109100 273.846161,276.918762 
	C272.566498,275.112793 270.410645,273.410553 270.182098,271.480133 
	C269.637390,266.879364 270.002930,262.170868 270.000793,257.009064 
z"/>
<path fill="#000000" opacity="1.000000" stroke="none" 
	d="
M276.962830,205.114288 
	C275.802307,206.644501 274.720795,207.983643 273.332275,208.801697 
	C273.025330,208.982529 271.192535,207.464157 270.864288,206.464813 
	C270.543213,205.487335 270.857147,203.775543 271.569733,203.078903 
	C274.119995,200.585617 275.533661,202.861725 276.962830,205.114288 
z"/>
<path fill="#000000" opacity="1.000000" stroke="none" 
	d="
M232.044617,251.109146 
	C232.035629,258.055511 232.325272,264.539551 231.844818,270.965973 
	C231.690552,273.029480 229.503250,274.940979 228.246063,276.922028 
	C227.157745,274.985931 225.209656,273.084595 225.129745,271.107727 
	C224.782059,262.506134 224.790909,253.875153 225.130890,245.273041 
	C225.201050,243.497726 227.240906,241.800217 228.372910,240.066833 
	C229.588760,241.763565 231.200256,243.313797 231.899414,245.201874 
	C232.493851,246.807205 232.036560,248.801987 232.044617,251.109146 
z"/>
<path fill="#000000" opacity="1.000000" stroke="none" 
	d="
M227.376099,202.273834 
	C229.044403,203.254730 230.376984,204.404053 231.709564,205.553375 
	C230.743240,206.580536 229.937637,208.044647 228.753693,208.480133 
	C227.973679,208.767044 225.737869,207.569061 225.740005,207.042419 
	C225.746262,205.507309 226.549576,203.975418 227.376099,202.273834 
z"/>
</svg>